<?xml version="1.0" standalone="no"?>
<!DOCTYPE svg PUBLIC "-//W3C//DTD SVG 20010904//EN"
 "http://www.w3.org/TR/2001/REC-SVG-20010904/DTD/svg10.dtd">
<svg version="1.0" xmlns="http://www.w3.org/2000/svg"
 width="260.000000pt" height="260.000000pt" viewBox="0 0 260.000000 260.000000"
 preserveAspectRatio="xMidYMid meet">
<metadata>
Created by potrace 1.11, written by Peter Selinger 2001-2013
</metadata>
<g transform="translate(0.000000,260.000000) scale(0.100000,-0.100000)"
fill="#000000" stroke="none">
<path d="M1520 2542 c-19 -16 -23 -30 -27 -113 -4 -80 -2 -97 11 -108 41 -34
76 21 101 159 11 60 -41 98 -85 62z"/>
<path d="M980 2432 c-26 -21 -23 -56 10 -110 38 -61 93 -27 83 51 -9 72 -48
96 -93 59z"/>
<path d="M2007 2406 c-12 -14 -40 -59 -62 -100 -43 -83 -42 -108 7 -114 21 -3
33 10 80 80 66 98 75 120 53 142 -23 23 -53 20 -78 -8z"/>
<path d="M474 2390 c-25 -10 -35 -40 -21 -66 17 -34 141 -154 158 -154 24 0
42 26 35 52 -8 32 -118 171 -136 173 -8 1 -25 -1 -36 -5z"/>
<path d="M1165 2253 c-439 -63 -767 -400 -831 -853 -6 -40 -5 -202 1 -235 27
-151 47 -213 101 -318 48 -95 83 -145 157 -224 194 -207 470 -321 747 -308 95
4 120 8 195 26 22 5 47 11 56 13 47 12 173 72 239 114 230 148 390 389 438
660 8 51 9 268 0 320 -88 522 -579 880 -1103 805z m219 -78 c376 -28 692 -302
786 -680 26 -102 28 -145 7 -160 -9 -6 -141 -10 -371 -9 -196 0 -359 -4 -362
-8 -3 -5 6 -24 20 -42 l26 -34 329 0 c182 0 339 -3 351 -7 27 -9 26 -41 -4
-180 -8 -36 -53 -149 -75 -189 -91 -160 -227 -293 -378 -370 -176 -88 -380
-120 -563 -86 -351 64 -628 326 -714 676 -20 82 -23 131 -9 145 6 6 139 10
352 10 l342 1 23 37 c13 20 22 38 19 41 -2 3 -167 5 -365 5 -327 0 -361 2
-372 17 -31 42 33 267 112 401 112 189 307 341 516 402 59 17 222 43 241 39 6
-2 45 -5 89 -9z"/>
<path d="M1216 2103 c-46 -15 -72 -37 -92 -75 -20 -39 -20 -494 0 -542 22 -52
72 -71 186 -71 81 0 100 3 131 22 19 12 40 33 46 45 6 14 10 125 9 278 -1 247
-2 256 -23 286 -13 17 -39 39 -59 49 -46 22 -148 26 -198 8z m152 -130 c9 -12
12 -73 12 -218 0 -189 -1 -203 -20 -220 -39 -35 -129 -9 -131 38 -5 116 4 394
14 405 28 34 98 31 125 -5z"/>
<path d="M1613 2027 c-37 -16 -36 -5 -33 -417 1 -102 6 -190 11 -196 9 -11 58
-10 87 1 9 3 12 38 12 125 0 71 4 120 10 120 5 0 44 -11 86 -25 89 -29 126
-31 148 -9 16 16 17 20 20 108 3 84 -32 135 -149 218 -94 67 -157 91 -192 75z
m201 -196 c25 -21 45 -69 39 -92 -3 -11 -7 -19 -8 -19 -2 0 -36 11 -77 25 -40
14 -74 25 -75 25 -6 0 -2 117 4 123 7 7 84 -34 117 -62z"/>
<path d="M862 1993 c-34 -21 -80 -54 -103 -72 -105 -88 -103 -83 -105 -295 -1
-100 0 -189 3 -198 3 -14 15 -18 47 -18 24 0 48 6 53 13 6 6 9 47 8 90 -2 95
-3 94 137 133 128 36 130 39 130 181 0 158 0 160 -24 183 -33 30 -76 25 -146
-17z m68 -157 c0 -39 -5 -67 -12 -73 -15 -12 -140 -54 -145 -50 -2 2 -5 18 -7
35 -4 34 25 70 98 124 59 42 66 38 66 -36z"/>
<path d="M533 1618 c-39 -28 -47 -52 -24 -72 15 -13 24 -14 52 -5 62 21 77 50
41 82 -24 22 -31 21 -69 -5z"/>
<path d="M1997 1622 c-23 -26 -21 -49 6 -66 41 -27 71 -29 91 -7 19 20 18 21
-18 56 -42 40 -56 43 -79 17z"/>
<path d="M1209 1288 c-26 -40 -42 -76 -37 -79 16 -10 59 -2 77 15 23 21 89 21
112 0 11 -9 31 -14 54 -12 l36 3 -48 70 c-48 70 -48 70 -98 73 l-50 3 -46 -73z
m118 6 c2 -7 -7 -11 -22 -11 -25 0 -31 7 -18 21 10 10 36 3 40 -10z"/>
<path d="M1431 1149 c-62 -27 -65 -44 -67 -324 -2 -270 1 -288 52 -321 18 -13
39 -15 82 -11 82 7 128 32 152 82 18 38 20 62 20 271 0 212 -2 231 -20 262
-11 18 -35 39 -53 47 -43 18 -119 15 -166 -6z m128 -93 c6 -4 10 -96 11 -216
1 -198 -1 -211 -20 -230 -25 -25 -66 -26 -78 -2 -4 9 -8 111 -7 226 0 192 2
209 20 222 17 13 53 13 74 0z"/>
<path d="M1759 1162 c-50 -3 -57 -6 -61 -25 -2 -12 -1 -33 2 -47 5 -20 12 -24
39 -24 18 1 34 -4 36 -10 3 -6 6 -105 7 -221 3 -233 6 -240 64 -187 l31 28 -2
196 -2 196 33 0 c18 0 37 3 42 6 10 6 8 73 -2 83 -7 7 -99 10 -187 5z"/>
<path d="M698 1144 c-16 -8 -31 -27 -36 -47 -11 -43 -8 -148 6 -173 6 -10 39
-31 74 -45 l63 -25 3 -52 c2 -29 -1 -52 -6 -52 -14 0 -50 42 -61 72 -10 26
-59 47 -80 34 -13 -9 -5 -83 13 -110 21 -33 117 -113 149 -125 29 -11 69 -1
83 20 4 6 7 68 7 137 0 144 -3 150 -98 177 -40 12 -54 21 -57 38 -10 55 25 95
53 61 6 -8 8 -14 4 -14 -4 0 -2 -7 5 -15 7 -9 29 -15 51 -15 l39 0 0 49 c0 76
-19 92 -110 96 -52 3 -83 -1 -102 -11z"/>
<path d="M1208 1152 c-33 -4 -30 8 -32 -157 l-1 -130 -35 3 c-19 2 -39 7 -43
11 -4 4 -9 66 -10 137 l-2 129 -50 0 -50 0 0 -307 c1 -169 3 -310 7 -313 3 -4
27 -13 52 -20 l46 -14 0 140 0 141 36 -5 c19 -3 38 -8 42 -11 3 -4 7 -66 8
-137 2 -72 5 -134 9 -137 3 -3 27 -6 52 -6 l47 -1 -2 235 c0 129 -1 281 -2
336 0 112 -2 114 -72 106z"/>
<path d="M494 1035 c-5 -22 -1 -31 22 -51 47 -38 94 -27 94 23 0 25 -19 38
-72 48 -34 7 -38 5 -44 -20z"/>
<path d="M2020 1047 c-45 -21 -51 -46 -19 -78 19 -19 22 -20 47 -4 46 29 63
54 52 76 -12 21 -42 24 -80 6z"/>
<path d="M2255 1988 c-46 -45 -52 -56 -45 -75 12 -30 41 -29 109 5 66 33 79
51 65 89 -7 22 -17 29 -42 31 -28 3 -40 -4 -87 -50z"/>
<path d="M232 1954 c-28 -19 -28 -57 -1 -83 33 -30 125 -72 143 -65 29 11 31
52 5 80 -23 25 -107 84 -118 84 -4 0 -17 -7 -29 -16z"/>
<path d="M21 1578 c-24 -21 -25 -31 -11 -58 11 -20 32 -26 135 -36 89 -9 106
-8 116 8 20 31 2 46 -92 72 -127 36 -126 36 -148 14z"/>
<path d="M2391 1571 c-62 -22 -76 -38 -57 -66 12 -17 24 -20 77 -18 70 2 94
18 80 56 -15 41 -40 48 -100 28z"/>
<path d="M2393 1139 c-33 -33 0 -60 117 -95 42 -13 48 -13 69 3 36 25 26 74
-19 91 -40 14 -153 15 -167 1z"/>
<path d="M156 1064 c-69 -14 -79 -22 -74 -60 4 -37 38 -42 122 -19 65 18 86
30 86 49 -1 40 -43 49 -134 30z"/>
<path d="M2191 711 c-12 -22 7 -43 86 -91 68 -41 108 -39 108 5 0 27 -7 33
-74 68 -83 42 -106 45 -120 18z"/>
<path d="M250 623 c-68 -30 -90 -50 -90 -78 0 -52 43 -58 115 -16 73 42 100
74 86 100 -15 27 -42 26 -111 -6z"/>
<path d="M2127 634 c-3 -3 -3 -12 0 -20 4 -10 9 -11 24 -1 10 6 19 15 19 19 0
9 -34 11 -43 2z"/>
<path d="M2150 599 c0 -5 5 -7 10 -4 6 3 10 8 10 11 0 2 -4 4 -10 4 -5 0 -10
-5 -10 -11z"/>
<path d="M583 406 c-37 -21 -142 -155 -149 -190 -5 -30 19 -56 51 -56 24 0 72
54 140 157 42 64 15 121 -42 89z"/>
<path d="M1932 338 c-7 -7 -12 -17 -12 -24 0 -20 100 -164 126 -181 52 -34
102 14 72 71 -16 31 -144 146 -161 146 -7 0 -18 -5 -25 -12z"/>
<path d="M1040 230 c-21 -40 -49 -141 -43 -156 7 -19 41 -33 64 -27 10 3 22
17 28 31 13 32 18 142 7 160 -11 19 -44 14 -56 -8z"/>
<path d="M1539 224 c-18 -22 -16 -99 4 -121 22 -25 51 -26 73 -2 15 17 16 24
5 62 -21 69 -54 94 -82 61z"/>
</g>
</svg>
