<?xml version="1.0" encoding="utf-8"?>
<!-- Generator: Adobe Illustrator 16.0.4, SVG Export Plug-In . SVG Version: 6.00 Build 0)  -->
<!DOCTYPE svg PUBLIC "-//W3C//DTD SVG 1.1//EN" "http://www.w3.org/Graphics/SVG/1.1/DTD/svg11.dtd">
<svg version="1.1" id="Layer_1" xmlns="http://www.w3.org/2000/svg" xmlns:xlink="http://www.w3.org/1999/xlink" x="0px" y="0px"
	 width="240.001px" height="51.738px" viewBox="0 0 240.001 51.738" enable-background="new 0 0 240.001 51.738"
	 xml:space="preserve">
<g>
	<g>
		<path fill="#B52025" d="M83.598,22.938c-0.024,0.053-0.048,0.115-0.067,0.191c-0.112,0.416-0.103,0.915-0.116,1.356
			c-0.016,0.486-0.03,0.974-0.046,1.46c-0.026,0.849-0.07,1.711-0.097,2.565c-0.014,0.446-0.062,0.908,0.138,1.249
			c0.13,0.222,0.316,0.329,0.503,0.347c0.144,0.014,0.293-0.025,0.438-0.03c0.299-0.012,0.584-0.076,0.881-0.102
			c0.579-0.05,1.158-0.112,1.737-0.175c0.77-0.085,1.54-0.169,2.31-0.229c0.564-0.043,1.13-0.082,1.694-0.116
			c0.285-0.018,0.57-0.033,0.856-0.049c0.224-0.012,0.437-0.086,0.576-0.436c0.093-0.233,0.081-0.449,0.099-0.71
			c0.017-0.257,0.028-0.512,0.036-0.771c0.019-0.595,0.038-1.19,0.056-1.786c0.02-0.621,0.039-1.243,0.059-1.864
			c0.009-0.265,0.017-0.529,0.024-0.793c0.01-0.289-0.008-0.682-0.124-0.902c-0.051-0.099-0.124-0.158-0.199-0.191
			c-0.23-0.101-0.508-0.021-0.747-0.015c-0.744,0.022-1.487,0.057-2.231,0.104c-0.974,0.062-1.948,0.146-2.923,0.26
			c-0.524,0.061-1.049,0.13-1.573,0.21c-0.264,0.04-0.526,0.083-0.79,0.129C83.891,22.677,83.718,22.689,83.598,22.938z"/>
		<path fill="#B52025" d="M132.095,21.946c0.178,0.418,0.12,1.092,0.12,1.523c0,0.481,0,0.963,0,1.444
			c0,0.839,0.016,1.692,0.016,2.537c0,0.441,0.033,0.899-0.169,1.23c-0.42,0.686-1.266,0.463-1.819,0.457
			c-0.751-0.009-1.501-0.018-2.252-0.026c-0.577-0.007-1.153-0.014-1.73-0.02c-0.577-0.007-1.146-0.038-1.723,0.01
			c-0.297,0.024-0.647,0.016-0.903-0.234c-0.251-0.247-0.263-0.662-0.275-1.055c-0.008-0.254-0.012-0.507-0.012-0.764
			c0-0.588,0-1.177,0-1.766c0-0.615,0-1.23,0-1.845c0-0.262,0-0.522,0-0.784c0-0.286,0.028-0.674,0.146-0.889
			c0.288-0.523,1.088-0.336,1.486-0.351c0.614-0.022,1.228-0.034,1.842-0.038c0.714-0.004,1.428,0.006,2.142,0.028
			c0.521,0.016,1.043-0.003,1.564,0.004c0.45,0.006,1.028-0.077,1.42,0.309C132.008,21.779,132.057,21.857,132.095,21.946z"/>
		<path fill="#1D4378" d="M233.008,20.226c0.111-0.069,0.243-0.106,0.374-0.121c0.191-0.021,0.365,0.012,0.55,0.057
			c0.533,0.132,1.067,0.264,1.601,0.397c0.794,0.197,1.594,0.374,2.381,0.6c0.159,0.045,0.317,0.093,0.476,0.143
			c0.493,0.156,1.189,0.373,1.457-0.213c0.093-0.204,0.097-0.703,0.111-0.922c0.07-1.008,0.034-2.898,0.034-3.913
			c0-0.422-0.011-0.876-0.173-1.275c-0.261-0.645-0.984-0.877-1.628-1.04c-1.084-0.275-2.169-0.55-3.253-0.825
			c-2.466-0.624-4.931-1.249-7.396-1.874c-0.616-0.156-1.233-0.312-1.849-0.469c-0.977-0.247-1.959-0.441-2.945-0.653
			c-0.7-0.15-1.424-0.392-2.132-0.481c-0.601-0.076-1.096,0.354-1.118,0.908c-0.009,0.218,0.001,0.451,0.001,0.664
			c0,0.932,0,2.728,0,3.659c0,0.27-0.08,1.306,0.071,1.553c0.077,0.126,0.209,0.217,0.352,0.275
			c0.656,0.271,1.356,0.424,2.035,0.609c0.769,0.21,1.544,0.384,2.305,0.623c0.417,0.132,0.829,0.276,1.234,0.441
			c0.141,0.058,0.348,0.121,0.443,0.243c0.1,0.126,0.119,0.313,0.116,0.468c-0.005,0.233-0.015,0.463-0.015,0.694
			c0,0.648,0,0.864,0,1.512c0,0.55,0,4.984,0,5.533c0,0.638,0,1.274,0,1.911c0,0.708,0,1.417,0,2.125c0,0.762,0,1.524,0,2.287
			c0,0.8,0,1.6,0,2.399c0,0.819,0,1.64,0,2.46c0,0.824,0,1.647,0,2.471c0,0.811,0,1.62,0,2.431c0,0.779,0,1.127,0,1.906
			c0,0.732,0,0.816,0,1.549c0,0.668,0,1.012,0,1.68c0,0.985,0.012,1.318,0.061,2.301c0.041,0.838,0.698,1.14,1.557,1.128
			c0.65,0,3.345-0.009,3.894,0.004c0.429-0.004,0.813,0.018,1.095-0.384c0.188-0.268,0.226-0.443,0.226-0.927
			s0.013-0.969,0.01-1.462c-0.003-0.524,0.002-2.772-0.001-3.297c-0.003-0.626-0.007-0.82-0.011-1.446
			c-0.004-0.708-0.008-0.12-0.012-0.828c-0.005-0.768-0.009-0.889-0.014-1.656c-0.004-0.808-0.009-1.615-0.014-2.423
			c-0.004-0.826-0.009-1.651-0.014-2.478c-0.005-0.823-0.01-1.646-0.014-2.469c-0.005-0.799-0.01-1.598-0.014-2.396
			c-0.005-0.755-0.009-1.509-0.014-2.263c-0.004-0.688-0.007-1.375-0.012-2.063c-0.003-0.601-0.006-4.656-0.01-5.257
			c-0.002-0.314-0.005-0.628-0.007-0.941c-0.002-0.282-0.072-0.652,0.15-0.87C232.932,20.277,232.969,20.25,233.008,20.226z"/>
		<path fill="#1D4378" d="M38.076,6.496c-11.443,0-11.25,8.901-11.25,8.901s0,25.88,0,27.53c0,2.099,0.128,8.56,11.146,8.56
			c10.707,0,11.072-5.745,11.072-8.24c0-2.494,0-27.547,0-27.547S49.115,6.496,38.076,6.496z M41.986,40.666
			c0,0.617,0.511,3.642-4.041,3.642c-4.224,0-4.017-2.995-4.017-3.76c0-0.822,0-21.369,0-22.163c0-0.734-0.416-4.345,3.945-4.345
			c4.507,0,4.112,3.855,4.112,4.414S41.986,40.051,41.986,40.666z"/>
		<path fill="#1D4378" d="M205.383,6.346c-0.289-0.045-0.579-0.085-0.869-0.12c-1.596-0.195-3.457-0.447-5.019,0.029
			c-1.364,0.417-2.666,1.078-3.67,2.049c-1.97,1.905-2.126,4.586-2.126,7.094c0,0.116,0,25.884,0,27.53
			c0,2.099,0.134,8.56,11.547,8.56c11.092,0,11.244-5.745,11.244-8.24c0-2.494,0-27.547,0-27.547c0-0.138-0.003-0.274-0.011-0.412
			c-0.005-0.08-0.01-0.16-0.017-0.24c-0.047-0.572-0.136-1.151-0.295-1.707c-0.371-1.291-1.023-2.586-1.958-3.595
			c-1.466-1.584-3.755-2.311-5.822-2.826C207.398,6.674,206.392,6.501,205.383,6.346z M209.364,40.666
			c0,0.617,0.569,3.573-4.146,3.573c-4.376,0-4.347-2.927-4.347-3.691c0-0.668,0-1.337,0-2.006c0-1.457,0-2.914,0-4.372
			c0-1.822,0-3.646,0-5.468c0-1.765,0-3.529,0-5.295c0-1.283,0-2.567,0-3.852c0-1.493-0.153-3.122,0.489-4.517
			c0.146-0.318,0.385-0.691,0.694-0.865c0.396-0.224,0.765-0.345,1.214-0.395c0.843-0.095,1.757-0.09,2.589,0.077
			c0.745,0.143,1.499,0.338,2.119,0.794c0.665,0.489,0.825,0.684,1.09,1.434c0.278,0.789,0.297,1.548,0.297,2.37
			C209.364,19.013,209.364,40.051,209.364,40.666z"/>
		<path fill="#1D4378" d="M18.922,11.929c-0.873-0.563-2.044-1.112-3.111-1.127c-1.161-0.017-2.412,0.089-3.545,0.335
			c-1.023,0.222-2.047,0.445-3.07,0.67c-1.61,0.354-3.14,0.878-4.75,1.228c-0.922,0.201-1.849,0.468-2.625,0.999
			c-1.922,1.315-1.691,3.778-1.719,5.855c-0.036,2.76-0.096,8.758-0.096,11.519c0,1.409,0,2.387,0,3.797
			c0,0.242,0.014,0.483,0.014,0.726c0,0.876,0,1.104,0,1.979c0,1.42,0,3.465,0,4.886c0,1.308,0-0.623,0,0.685
			c0,1.081,0,2.162,0,3.243c0,0.42,0,2.504,0,2.924c0,0.269-0.005,0.542-0.018,0.81c-0.006,0.147,0.006,0.314,0.042,0.46
			c0.026,0.109,0.059,0.232,0.132,0.322c0.158,0.194,0.462,0.225,0.702,0.212c0.318-0.017,0.632,0.009,0.953,0.006
			c0.466-0.003,0.932-0.007,1.397-0.011c0.549-0.004,1.887-0.004,2.435-0.011c0.381-0.005,0.812,0.01,1.15-0.184
			c0.352-0.201,0.337-0.735,0.342-1.068c0.007-0.451,0.012-6.009,0.012-6.258c0-0.39-0.023-0.762,0.16-1.115
			c0.512-0.991,1.734-1.329,2.765-1.616c0.642-0.179,1.297-0.312,1.953-0.435c0.334-0.062,0.669-0.146,0.998-0.23
			c1.19-0.308,2.367-0.661,3.538-1.031c1.043-0.33,1.944-0.634,2.798-1.31c1.465-1.158,2.381-2.822,2.689-4.599
			c0.17-0.98,0.145-2.018,0.212-3.006c0.024-0.37,0.02-0.742,0.019-1.113c-0.004-0.97-0.03-1.939-0.03-2.908
			c0-0.309,0-1.913,0-2.222c0-0.578,0-1.156,0-1.735c0-3.637,0.509-7.651-2.759-10.254C19.321,12.2,19.125,12.06,18.922,11.929z
			 M13.783,33.19c-1.335,0.861-3.256,0.969-4.747,1.372c-0.383,0.104-0.781,0.208-1.172,0.137c-1.041-0.191-0.745-1.495-0.745-2.319
			c0-1.631-0.035-6.067-0.012-7.698c0.017-1.147-0.058-2.26,0.008-3.405c0.027-0.473,0.138-0.977,0.498-1.303
			c1.286-1.164,4.035-1.569,5.614-0.813c2.171,1.038,2.081,3.292,2.093,5.276c0.009,1.485,0.023,2.97,0.023,4.454
			c0,1.324,0.121,2.584-0.832,3.676C14.298,32.812,14.053,33.016,13.783,33.19z"/>
		<path fill="#1D4378" d="M74.09,4.498c-3.327-2.294-7.519-2.233-11.355-1.468c-1.694,0.338-3.612,0.6-5.227,1.185
			c-1.241,0.449-2.36,1.448-2.71,2.697c-0.335,1.198-0.25,2.463-0.267,3.691c-0.039,2.76-0.101,9.406-0.101,12.166
			c0,1.409,0,2.387,0,3.797c0,0.243,0.014,0.483,0.014,0.727c0,0.875,0,1.103,0,1.979c0,1.421,0,3.466,0,4.886
			c0,1.309,0,8.015,0,9.322c0,1.081,0,2.162,0,3.243c0,0.42,0,2.504,0,2.924c0,0.269-0.005,0.542-0.019,0.81
			c-0.007,0.147,0.006,0.314,0.044,0.46c0.028,0.109,0.062,0.232,0.139,0.322c0.166,0.194,0.485,0.225,0.738,0.212
			c0.334-0.017,0.891,0.009,1.229,0.006c0.49-0.003,0.979-0.007,1.469-0.011c0.576-0.004,1.267-0.004,1.843-0.011
			c0.399-0.005,1.307,0.01,1.662-0.184c0.37-0.201,0.354-0.735,0.359-1.068c0.008-0.451,0.013-13.78,0.013-14.031
			c-0.001-0.864,0.275-1.651,1.145-2.053c0.573-0.265,1.223-0.321,1.854-0.389c2.565-0.274,5.206-0.692,7.603-1.646
			c1.232-0.491,2.843-1.24,3.631-2.315c0.778-1.059,1.458-2.2,1.766-3.475c0.207-0.852,0.252-1.736,0.317-2.605
			c0.068-0.922,0-1.872,0-2.795c0-1.856-0.009-3.721-0.061-5.567c-0.054-1.89,0.039-3.65-0.438-5.518
			c-0.192-0.752-0.379-1.637-0.769-2.311c-0.426-0.736-1.112-1.443-1.729-2.039C74.885,5.095,74.499,4.78,74.09,4.498z
			 M68.995,25.215c-0.757,0.486-1.568,0.563-2.468,0.775c-1.086,0.255-2.222,0.398-3.341,0.474c-0.494,0.032-1.015-0.054-1.29-0.502
			c-0.344-0.558-0.253-1.173-0.253-1.787c0-0.912-0.012-5.062-0.018-5.974c-0.006-0.859-0.065-1.741-0.023-2.593
			c0-0.677,0-1.354,0-2.03c0-0.689-0.111-0.75,0.061-1.429c0.19-0.758,0.765-1.251,1.497-1.506c1.84-0.641,4.484-1.204,6.13,0.126
			c0.914,0.739,1.309,1.953,1.46,3.053c0.081,0.595,0.144,1.17,0.144,1.769c0,1.47,0,2.939,0,4.41c0,1.749-0.093,3.77-1.6,4.996
			C69.195,25.078,69.096,25.149,68.995,25.215z"/>
		<path fill="#1D4378" d="M152.346,16.296c-0.301-0.258-0.512-0.688-0.523-1.085c-0.036-1.316,0.288-4.848-0.705-5.885
			c-0.623-0.65-1.639-0.934-2.531-0.706c-1.992,0.507-2.129,2.85-2.129,4.465c0,0.495,0,1.853,0,2.347
			c0,0.574-0.01,0.854,0.002,1.427c0.021,1.003-0.008,0.711,0.011,1.714c0.031,1.632,0.524,3.008,2.212,3.697
			c1.005,0.41,2.12,0.487,3.21,0.579c1.875,0.158,3.825,0.685,5.369,1.742c2.234,1.532,2.704,3.95,2.753,6.405
			c0.009,0.395-0.005,0.79,0.007,1.183c0.013,0.406,0.019,0.812,0.02,1.219c0,1.447-0.006-0.561-0.006,0.887
			c0,0.616,0,2.744,0,3.361c0,1.838,0,3.676,0,5.514c0,2.302-0.767,4.508-2.572,6.105c-0.527,0.466-1.128,0.847-1.777,1.14
			c-5.066,2.291-14.624,1.994-16.995-3.792c-0.913-2.228-0.971-7.154-0.841-9.515c0.023-0.42,0.211-0.832,0.73-0.868
			c0.309-0.021,0.626-0.004,0.935-0.004c0.813,0,1.627,0,2.44,0c0.661,0,1.321,0,1.982,0c0.607,0,1.477-0.157,1.911,0.355
			c0.363,0.43,0.323,1.08,0.304,1.596c-0.021,0.544-0.059,3.031-0.044,3.575c0.026,1.009,0.236,2.132,1.205,2.713
			c0.058,0.034,0.117,0.066,0.179,0.097c0.746,0.366,1.976,0.366,2.689-0.081c0.47-0.294,0.759-0.798,0.892-1.317
			c0.19-0.743,0.18-1.587,0.187-2.348c0.008-0.87,0.044-1.74,0.044-2.611c0-0.777,0.048-3.063,0.052-3.843
			c0.001-0.039,0.001-0.078,0.001-0.118c0.014-1.149,0.065-2.403-0.949-3.26c-1.267-1.068-3.24-0.729-4.797-0.997
			c-1.597-0.274-3.636-0.524-4.876-1.622c-1.402-1.242-2.269-3.138-2.666-4.888c-0.428-1.881-0.122-3.979-0.193-5.903
			c-0.061-1.63-0.011-3.295-0.017-4.929c-0.011-3.299,0.016-6.373,2.608-8.895c1.015-0.986,2.281-1.729,3.654-2.172
			c1.815-0.584,3.795-0.638,5.688-0.454c3.512,0.341,7.16,1.1,9.028,4.25c0.951,1.604,1.187,3.453,1.24,5.264
			c0.022,0.743,0.015,3.216,0.015,3.959c0,0.652,0.07,2.008-0.881,2.008h-5.673c-0.379-0.017-0.749-0.004-1.081-0.226
			C152.418,16.354,152.381,16.325,152.346,16.296z"/>
		<path fill="#1D4378" d="M187.832,7.004c0,0.761,0,1.521,0,2.282c0,0.989,0,1.979,0,2.969c0,1.174,0,2.348,0,3.521
			c0,1.312,0,2.624,0,3.937c0,1.405,0,3.89,0,5.296c0,1.453,0,2.907,0,4.36c0,1.457,0,2.913,0,4.37c0,1.414,0,1.749,0,3.164
			c0,1.327,0,2.654,0,3.981c0,1.194,0,2.389,0,3.584c0,1.017,0,2.033,0,3.051c0,0.794,0,0.934,0,1.729
			c0,0.566,0.128,1.181-0.257,1.68c-0.211,0.273-0.562,0.412-0.906,0.44c-0.895,0.072-1.83,0-2.729,0
			c-0.623,0-1.244,0.021-1.864,0.021c-0.51-0.02-0.986,0.026-1.434-0.24c-0.381-0.227-0.653-0.601-0.653-1.037
			c0-0.277,0-0.555,0-0.831c0-1.118,0-1.969,0-3.087c0-1.423,0-2.846,0-4.269c0-1.502,0-3.004,0-4.505c0-1.354,0-0.738,0-2.091
			c0-0.423-0.021-0.631-0.028-1.051c-0.006-0.363,0.016-0.65-0.338-0.888c-0.228-0.152-0.507-0.217-0.779-0.271
			c-1.485-0.292-2.985-0.359-4.479-0.6c-0.18-0.028-0.345-0.062-0.527-0.006c-0.387,0.121-0.352,0.535-0.352,0.838
			c0,0.426,0,0.851,0,1.276c0,0.879,0,0.659,0,1.537c0,1.013,0,0.944,0,1.957c0,1.059,0,2.118,0,3.178c0,1.022,0,1.821,0,2.843
			c0,0.897,0,1.795,0,2.691c0,0.76,0,1.519,0,2.277c0,0.683,0.167,1.578-0.493,2.049c-0.363,0.259-0.758,0.207-1.179,0.207
			c-1.521-0.003-3.044,0-4.565,0c-0.362,0.025-0.733-0.088-1.009-0.313c-0.631-0.518-0.522-1.384-0.522-2.094
			c0-0.538,0-3.878,0-4.416c0-0.671,0-0.897,0-1.569c0-0.783,0-1.567,0-2.352c0-0.877,0-1.755,0-2.632c0-0.951,0-0.822,0-1.772
			c0-1.004,0-2.009,0-3.013c0-1.038,0-2.076,0-3.113c0-1.052,0-2.104,0-3.155c0-1.047,0-2.092,0-3.138c0-1.021,0-3.12,0-4.14
			c0-0.975,0-1.949,0-2.923c0-0.909,0-1.817,0-2.727c0-0.823,0-1.646,0-2.471c0-0.718,0-1.437,0-2.154c0-0.593,0-3.346,0-3.938
			c0-0.449,0-1.551,0-1.999c0-0.531,0.119-1.005,0.729-1.151c0.849-0.204,1.888,0.018,2.745,0.092
			c1.014,0.087,2.027,0.175,3.041,0.262c0.212,0.019,0.427,0.038,0.626,0.11c0.358,0.131,0.506,0.397,0.538,0.745
			c0.026,0.298,0.001,0.829,0.001,1.129c0,0.388,0,0.776,0,1.164c0,0.46,0,3.078,0,3.538c0,0.513,0,1.026,0,1.539
			c0,0.549,0,1.098,0,1.646c0,0.566,0,1.134,0,1.701s0,1.135,0,1.702c0,0.55,0,1.1,0,1.65c0,0.515,0,1.029,0,1.545
			c0,1.253,0.017,3.583,0.017,4.835c0,0.286,0.011,0.621,0.21,0.857c0.2,0.236,0.436,0.332,0.737,0.399
			c0.358,0.079,3.92,0.437,4.829,0.522c0.24,0.01,0.392-0.01,0.546-0.122c0.143-0.104,0.197-0.284,0.23-0.441
			c0.042-0.197,0.055-0.398,0.062-0.599c0.019-0.561,0.047-0.9,0.049-1.46c0.001-0.376,0.001-1.831,0.001-2.206
			c0-0.44,0-0.882,0-1.321c0-0.499,0-0.997,0-1.496c0-0.539,0-1.078,0-1.617c0-0.562,0-1.124,0-1.686c0-0.567,0-1.135,0-1.702
			c0-0.556,0-1.11,0-1.666c0-0.525,0-1.051,0-1.576c0-0.479,0-0.957,0-1.435c0-0.414,0-0.827,0-1.24c0-0.331,0-2.18,0-2.511
			c0-1.382,1.583-1.082,2.549-0.99c0.888,0.085,1.773,0.179,2.658,0.282c0.76,0.089,1.561,0.112,2.251,0.44
			c0.278,0.21,0.296,0.458,0.296,0.756C187.832,5.475,187.832,6.674,187.832,7.004z"/>
		<path fill="#1D4378" d="M122.866,50.605c-0.003-0.021-0.005-0.043-0.009-0.063c-0.038-0.262-0.126-0.528-0.18-0.786
			c-0.092-0.447-0.184-0.895-0.275-1.341c-0.131-0.637-0.262-1.273-0.392-1.91c-0.165-0.801-0.33-1.602-0.494-2.402
			c-0.193-0.939-0.386-1.879-0.579-2.818c-0.217-1.053-0.433-2.105-0.649-3.158c-0.234-1.142-0.469-2.282-0.703-3.423
			c-0.247-1.204-0.495-2.407-0.742-3.611c-0.255-1.24-0.509-2.481-0.765-3.722c-0.257-1.252-0.515-2.505-0.771-3.757
			c-0.255-1.239-0.509-2.478-0.764-3.717c-0.246-1.199-0.493-2.399-0.739-3.599c-0.233-1.135-0.467-2.271-0.7-3.405
			c-0.215-1.045-0.43-2.091-0.644-3.136c-0.191-0.93-0.383-1.859-0.575-2.795c-0.106-0.519-0.238-1.032-0.363-1.548
			c-0.129-0.529-0.275-1.04-0.391-1.572c-0.118-0.549-0.259-1.094-0.419-1.633c-0.117-0.392-0.249-0.777-0.383-1.163
			c-0.104-0.301-0.134-0.597-0.427-0.806c-0.218-0.155-0.505-0.185-0.776-0.201c-1.954-0.125-3.96,0.063-5.896,0.324
			c-0.257,0.034-0.521,0.065-0.75,0.189c-0.416,0.226-0.605,0.69-0.756,1.122c-0.082,0.234-0.159,0.446-0.225,0.689
			c-0.07,0.265-0.158,0.524-0.21,0.793c-0.089,0.473-0.195,0.942-0.299,1.411c-0.178,0.8-0.354,1.598-0.531,2.397
			c-0.211,0.952-0.422,1.904-0.633,2.856c-0.239,1.077-0.478,2.154-0.716,3.231c-0.261,1.174-0.521,2.348-0.78,3.521
			c-0.275,1.242-0.551,2.484-0.826,3.727c-0.283,1.282-0.568,2.564-0.852,3.848c-0.287,1.294-0.574,2.589-0.86,3.883
			c-0.283,1.278-0.566,2.557-0.85,3.834c-0.273,1.234-0.547,2.468-0.82,3.701c-0.257,1.161-0.515,2.321-0.771,3.482
			c-0.234,1.06-0.47,2.119-0.704,3.179c-0.206,0.931-0.412,1.86-0.618,2.791c-0.172,0.773-0.343,1.546-0.515,2.319
			c-0.13,0.587-0.26,1.174-0.39,1.761c-0.068,0.311-0.194,0.619-0.237,0.935c-0.036,0.269-0.119,0.565-0.086,0.837
			c0.051,0.423,0.353,0.607,0.765,0.607c1.288,0,2.576,0,3.864,0c0.5,0,1,0,1.499,0c0.568,0,1.105-0.032,1.473-0.515
			c0.226-0.296,0.334-0.637,0.411-0.983c0.023-0.106,0.047-0.213,0.07-0.319c0.052-0.231,0.103-0.462,0.153-0.693
			c0.118-0.531,0.236-1.062,0.354-1.593c0.18-0.81,0.359-1.62,0.538-2.431c0.093-0.417,0.161-0.848,0.279-1.259
			c0.166-0.576,0.709-0.602,1.233-0.694c0.74-0.131,1.489-0.221,2.24-0.277c0.919-0.07,1.817-0.142,2.736-0.154
			c0.777-0.011,1.555,0.007,2.332,0.038c0.442,0.019,0.887,0.017,1.33,0.033c0.351,0.014,0.944-0.043,1.25,0.143
			c0.245,0.149,0.247,0.728,0.298,0.976c0.086,0.417,0.171,1.05,0.257,1.466c0.231,1.126,0.463,2.253,0.694,3.379
			c0.09,0.436,0.179,0.871,0.269,1.307c0.113,0.55,0.119,1.146,0.764,1.374c0.275,0.098,0.573,0.122,0.866,0.136
			c0.352,0.018,0.709,0,1.061,0c0.887,0,1.772,0,2.658,0c0.436,0,0.87,0,1.306,0c0.386,0,0.98,0.084,1.237-0.256
			C122.856,50.999,122.888,50.796,122.866,50.605z M105.361,29.454c0.326-1.472,0.652-2.944,0.979-4.416
			c0.275-1.245,0.551-2.49,0.827-3.736c0.201-0.908,0.402-1.817,0.604-2.726c0.104-0.463,0.206-0.927,0.309-1.39
			c0.006-0.027,0.03-0.081,0.024-0.109c0.055,0.265,0.108,0.53,0.163,0.795c0.149,0.727,0.299,1.453,0.448,2.18
			c0.223,1.087,0.446,2.174,0.67,3.261c0.276,1.346,0.553,2.691,0.829,4.037c0.31,1.505,0.618,3.009,0.928,4.513
			c0.135,0.655,0.27,1.312,0.404,1.967c0.052,0.256,0.106,0.511,0.157,0.767c0.021,0.109,0.027,0.221,0.049,0.332
			c0.023,0.128,0.039,0.258,0.034,0.388c-0.002,0.047-0.008,0.096-0.03,0.137c-0.062,0.111-0.244,0.091-0.354,0.089
			c-1.262-0.012-2.522,0.002-3.783,0.041c-0.902,0.027-1.796,0.092-2.695,0.164c-0.119,0.011-0.25,0.034-0.37,0.026
			c-0.184-0.01-0.375-0.108-0.434-0.275c-0.034-0.1-0.017-0.208,0.001-0.312c0.166-0.947,0.389-1.884,0.597-2.824
			C104.932,31.393,105.146,30.424,105.361,29.454z"/>
	</g>
	<g>
		<path fill="#1D4378" d="M238.052,47.843c1.055,0,1.918,0.863,1.918,1.919c0,1.055-0.863,1.918-1.918,1.918
			s-1.913-0.863-1.913-1.918C236.139,48.706,236.997,47.843,238.052,47.843z M238.052,51.216c0.805,0,1.449-0.655,1.449-1.454
			c0-0.805-0.645-1.449-1.449-1.449c-0.799,0-1.449,0.645-1.449,1.449C236.603,50.561,237.253,51.216,238.052,51.216z
			 M237.316,48.882c0-0.053,0.043-0.101,0.102-0.101h0.863c0.33,0,0.655,0.266,0.655,0.692c0,0.33-0.182,0.495-0.357,0.597
			l0.213,0.517c0.032,0.069-0.016,0.144-0.091,0.144h-0.361c-0.043,0-0.086-0.036-0.097-0.074l-0.197-0.564h-0.207v0.538
			c0,0.053-0.043,0.101-0.102,0.101h-0.319c-0.059,0-0.102-0.048-0.102-0.101V48.882z M238.19,49.66c0.091,0,0.17-0.08,0.17-0.176
			c0-0.102-0.079-0.176-0.17-0.176h-0.368v0.352H238.19z"/>
	</g>
</g>
</svg>
